{
  "accessors": [
    {
      "bufferView": 2,
      "componentType": 5126,
      "count": 10068,
      "max": [
        1.5020530223846436,
        1.4517459869384766,
        5.15583610534668
      ],
      "min": [
        -1.2202789783477783,
        -1.2138839960098267,
        -0.05229699984192848
      ],
      "type": "VEC3"
    },
    {
      "bufferView": 2,
      "byteOffset": 120816,
      "componentType": 5126,
      "count": 10068,
      "max": [
        0.9988859295845032,
        1.0,
        0.9999415874481201
      ],
      "min": [
        -0.9998582601547241,
        -1.0,
        -0.9998992681503296
      ],
      "type": "VEC3"
    },
    {
      "bufferView": 1,
      "componentType": 5126,
      "count": 10068,
      "max": [
        1.0168850421905518,
        1.0
      ],
      "min": [
        0.0,
        0.0
      ],
      "type": "VEC2"
    },
    {
      "bufferView": 0,
      "componentType": 5125,
      "count": 15852,
      "type": "SCALAR"
    },
    {
      "bufferView": 2,
      "byteOffset": 241632,
      "componentType": 5126,
      "count": 8188,
      "max": [
        1.5869139432907104,
        1.5421520471572876,
        5.231544017791748
      ],
      "min": [
        -0.9828180074691772,
        -0.9412490129470825,
        2.474339008331299
      ],
      "type": "VEC3"
    },
    {
      "bufferView": 2,
      "byteOffset": 339888,
      "componentType": 5126,
      "count": 8188,
      "max": [
        0.9983264207839966,
        0.9938445091247559,
        0.9999960660934448
      ],
      "min": [
        -0.9916677474975586,
        -0.9965458512306213,
        -0.27790236473083496
      ],
      "type": "VEC3"
    },
    {
      "bufferView": 1,
      "byteOffset": 80544,
      "componentType": 5126,
      "count": 8188,
      "max": [
        1.0,
        1.0
      ],
      "min": [
        0.0,
        0.009999999776482582
      ],
      "type": "VEC2"
    },
    {
      "bufferView": 0,
      "byteOffset": 63408,
      "componentType": 5125,
      "count": 15390,
      "type": "SCALAR"
    }
  ],
  "asset": {
    "extras": {
      "author": "Attila Dézsi (https://sketchfab.com/attila.dezsi)",
      "license": "CC-BY-SA-4.0 (http://creativecommons.org/licenses/by-sa/4.0/)",
      "source": "https://sketchfab.com/3d-models/wiesen-piepau-crepis-biennis-d531ad0ae44f4f9a917ebd349682b41f",
      "title": "Wiesen- Piepau (Crepis biennis)"
    },
    "generator": "Sketchfab-12.67.0",
    "version": "2.0"
  },
  "bufferViews": [
    {
      "buffer": 0,
      "byteLength": 124968,
      "name": "floatBufferViews",
      "target": 34963
    },
    {
      "buffer": 0,
      "byteLength": 146048,
      "byteOffset": 124968,
      "byteStride": 8,
      "name": "floatBufferViews",
      "target": 34962
    },
    {
      "buffer": 0,
      "byteLength": 438144,
      "byteOffset": 271016,
      "byteStride": 12,
      "name": "floatBufferViews",
      "target": 34962
    }
  ],
  "buffers": [
    {
      "byteLength": 709160,
      "uri": "scene.bin"
    }
  ],
  "materials": [
    {
      "doubleSided": true,
      "name": "Veg_Wiesen-Piepau",
      "pbrMetallicRoughness": {
        "baseColorFactor": [
          0.033105,
          0.177888,
          0.001518,
          1.0
        ],
        "metallicFactor": 0.0,
        "roughnessFactor": 0.8063508326896291
      }
    },
    {
      "doubleSided": true,
      "name": "Veg_Wiesen-Piepau_Blte",
      "pbrMetallicRoughness": {
        "baseColorFactor": [
          0.846873,
          0.630757,
          0.003035,
          1.0
        ],
        "metallicFactor": 0.0,
        "roughnessFactor": 0.8063508326896291
      }
    }
  ],
  "meshes": [
    {
      "name": "Object_0",
      "primitives": [
        {
          "attributes": {
            "NORMAL": 1,
            "POSITION": 0,
            "TEXCOORD_0": 2
          },
          "indices": 3,
          "material": 0,
          "mode": 4
        }
      ]
    },
    {
      "name": "Object_1",
      "primitives": [
        {
          "attributes": {
            "NORMAL": 5,
            "POSITION": 4,
            "TEXCOORD_0": 6
          },
          "indices": 7,
          "material": 1,
          "mode": 4
        }
      ]
    }
  ],
  "nodes": [
    {
      "children": [
        1
      ],
      "matrix": [
        1.0,
        0.0,
        0.0,
        0.0,
        0.0,
        2.220446049250313e-16,
        -1.0,
        0.0,
        0.0,
        1.0,
        2.220446049250313e-16,
        0.0,
        0.0,
        0.0,
        0.0,
        1.0
      ],
      "name": "Sketchfab_model"
    },
    {
      "children": [
        2,
        3
      ],
      "name": "Wiesen-Piepau.obj.cleaner.materialmerger.gles"
    },
    {
      "mesh": 0,
      "name": "Object_2"
    },
    {
      "mesh": 1,
      "name": "Object_3"
    }
  ],
  "scene": 0,
  "scenes": [
    {
      "name": "Sketchfab_Scene",
      "nodes": [
        0
      ]
    }
  ]
}
